{
    "asset" : {
        "generator" : "Khronos glTF Blender I/O v3.2.40",
        "version" : "2.0"
    },
    "scene" : 0,
    "scenes" : [
        {
            "name" : "Scene",
            "nodes" : [
                0
            ]
        }
    ],
    "nodes" : [
        {
            "mesh" : 0,
            "name" : "Cube",
            "rotation" : [
                0,
                1,
                0,
                0
            ],
            "scale" : [
                -6.58443546295166,
                -4.832930088043213,
                -9.759896278381348
            ],
            "translation" : [
                -7.584951400756836,
                4.786853790283203,
                0
            ]
        }
    ],
    "materials" : [
        {
            "doubleSided" : true,
            "name" : "Material.001",
            "pbrMetallicRoughness" : {
                "baseColorTexture" : {
                    "index" : 0
                },
                "metallicFactor" : 0,
                "roughnessFactor" : 0.5
            }
        }
    ],
    "meshes" : [
        {
            "name" : "Cube.001",
            "primitives" : [
                {
                    "attributes" : {
                        "POSITION" : 0,
                        "NORMAL" : 1,
                        "TEXCOORD_0" : 2
                    },
                    "indices" : 3,
                    "material" : 0
                }
            ]
        }
    ],
    "textures" : [
        {
            "sampler" : 0,
            "source" : 0
        }
    ],
    "images" : [
        {
            "mimeType" : "image/png",
            "name" : "Cube Base Color",
            "uri" : "texture/Cube%20Base%20Color.png"
        }
    ],
    "accessors" : [
        {
            "bufferView" : 0,
            "componentType" : 5126,
            "count" : 1160,
            "max" : [
                3.7071170806884766,
                1.0040631294250488,
                1.723821759223938
            ],
            "min" : [
                -1.403213620185852,
                -3.7917678356170654,
                -1.723821759223938
            ],
            "type" : "VEC3"
        },
        {
            "bufferView" : 1,
            "componentType" : 5126,
            "count" : 1160,
            "type" : "VEC3"
        },
        {
            "bufferView" : 2,
            "componentType" : 5126,
            "count" : 1160,
            "type" : "VEC2"
        },
        {
            "bufferView" : 3,
            "componentType" : 5123,
            "count" : 2205,
            "type" : "SCALAR"
        }
    ],
    "bufferViews" : [
        {
            "buffer" : 0,
            "byteLength" : 13920,
            "byteOffset" : 0
        },
        {
            "buffer" : 0,
            "byteLength" : 13920,
            "byteOffset" : 13920
        },
        {
            "buffer" : 0,
            "byteLength" : 9280,
            "byteOffset" : 27840
        },
        {
            "buffer" : 0,
            "byteLength" : 4410,
            "byteOffset" : 37120
        }
    ],
    "samplers" : [
        {
            "magFilter" : 9729,
            "minFilter" : 9987
        }
    ],
    "buffers" : [
        {
            "byteLength" : 41532,
            "uri" : "House.bin"
        }
    ]
}
